<svg id="svg" xmlns="http://www.w3.org/2000/svg" xmlns:xlink="http://www.w3.org/1999/xlink" width="400" height="155.3072625698324" viewBox="0, 0, 400,155.3072625698324"><g id="svgg"><path id="path0" d="M364.804 0.910 C 356.089 2.598,350.967 4.999,346.891 9.308 C 338.890 17.768,338.871 30.705,346.848 39.090 C 349.885 42.282,349.888 42.271,344.648 45.737 C 328.634 56.328,330.429 74.908,348.098 81.445 C 355.008 84.001,368.873 84.765,375.698 82.964 C 396.055 77.594,402.743 57.798,388.212 45.926 C 383.545 42.114,383.535 42.007,387.593 39.503 C 401.700 30.795,403.684 13.987,391.532 6.132 C 385.083 1.964,372.280 -0.538,364.804 0.910 M378.060 15.959 C 385.506 18.988,383.231 26.891,373.161 32.975 C 368.671 35.688,368.760 35.699,363.577 31.837 C 351.818 23.074,363.654 10.099,378.060 15.959 M285.196 15.825 C 280.322 17.732,279.244 19.476,276.777 29.447 C 274.533 38.512,274.681 38.331,268.407 39.702 C 262.722 40.944,263.087 41.138,261.475 36.034 C 256.775 21.151,245.264 13.781,231.704 16.973 C 216.153 20.634,206.704 34.544,206.704 53.778 L 206.704 60.687 203.379 64.637 C 199.786 68.905,197.572 70.156,195.203 69.256 C 192.214 68.119,192.059 66.609,192.801 45.848 L 193.475 26.980 192.210 24.365 C 185.953 11.440,167.260 24.101,158.654 47.094 C 156.269 53.467,155.874 52.806,156.389 43.296 C 157.225 27.845,155.525 24.220,147.695 24.763 C 137.951 25.438,130.926 33.139,123.654 51.117 L 120.716 58.380 120.704 55.028 C 120.698 53.184,121.060 48.282,121.508 44.134 C 123.156 28.905,122.714 27.723,115.813 28.905 C 106.234 30.546,105.084 33.361,104.547 56.469 L 104.190 71.877 102.534 74.067 C 94.660 84.481,87.241 89.106,78.408 89.106 C 70.800 89.106,66.938 86.721,70.943 84.498 C 86.774 75.709,93.191 67.260,92.628 55.944 C 91.651 36.277,71.321 30.863,56.049 46.204 C 47.794 54.495,44.632 66.190,46.987 79.714 C 47.780 84.272,48.305 83.733,35.902 91.110 C 19.433 100.906,19.921 102.124,25.744 65.764 C 30.212 37.861,30.377 35.000,27.829 29.511 C 23.539 20.271,14.876 16.634,6.913 20.732 C 0.709 23.925,-0.895 29.993,1.978 39.400 C 5.829 52.010,6.184 55.129,6.745 81.285 C 7.470 115.136,8.142 117.052,19.274 117.031 C 26.487 117.017,26.799 116.816,43.283 101.536 C 52.892 92.629,52.148 92.862,56.876 97.285 C 69.196 108.809,89.343 106.773,104.394 92.482 L 107.949 89.106 108.848 90.503 C 112.376 95.987,117.207 97.686,121.621 94.995 C 124.373 93.317,125.051 91.356,127.689 77.446 C 131.608 56.779,134.680 48.603,138.525 48.603 C 139.649 48.603,140.157 52.569,140.455 63.687 C 141.019 84.712,144.658 92.762,152.964 91.359 C 158.636 90.401,159.939 88.282,161.450 77.554 C 163.723 61.415,170.045 44.121,173.831 43.683 C 175.959 43.437,176.154 44.983,175.679 58.347 C 175.207 71.625,175.884 76.283,178.947 80.845 C 184.589 89.249,198.276 87.914,208.863 77.927 C 213.433 73.616,212.702 73.727,216.014 76.839 C 231.344 91.243,255.402 82.423,261.445 60.185 C 262.568 56.052,263.287 55.567,269.134 54.998 L 273.184 54.604 273.184 59.327 C 273.184 70.452,275.773 79.342,279.506 81.037 C 285.599 83.803,289.997 81.202,292.199 73.531 C 298.038 53.186,306.355 36.752,310.422 37.523 C 311.971 37.817,311.965 40.296,310.381 53.704 C 307.667 76.674,307.799 78.213,312.718 80.909 C 318.334 83.989,324.622 81.467,326.247 75.483 C 326.549 74.372,327.178 67.798,327.644 60.873 C 328.111 53.947,328.995 44.771,329.608 40.481 C 332.644 19.237,331.534 15.363,322.410 15.363 C 312.249 15.363,304.008 22.328,294.713 38.769 C 289.952 47.192,289.879 45.644,294.175 27.302 C 296.419 17.722,296.424 17.653,294.972 16.201 C 293.675 14.904,288.097 14.689,285.196 15.825 M236.928 36.592 C 237.332 41.974,238.849 45.292,243.310 50.551 C 246.691 54.536,246.866 55.314,245.407 59.831 C 243.617 65.376,238.075 69.416,233.680 68.380 C 222.024 65.633,220.997 39.002,232.314 32.961 C 235.961 31.015,236.543 31.474,236.928 36.592 M368.766 51.961 C 381.495 59.545,381.403 67.257,368.549 69.953 C 354.589 72.882,345.542 61.501,355.438 53.460 C 361.724 48.352,362.552 48.259,368.766 51.961 M76.282 53.885 C 77.912 55.514,78.249 61.493,76.860 64.134 C 75.454 66.808,66.165 74.860,64.486 74.860 C 62.327 74.860,62.677 62.151,64.957 57.737 C 67.699 52.427,73.016 50.619,76.282 53.885 M265.922 112.672 C 210.912 113.674,149.073 121.286,91.341 134.161 C 71.515 138.583,68.715 139.859,68.715 144.469 C 68.715 151.976,83.219 156.579,95.902 153.097 C 119.771 146.544,176.973 136.888,210.056 133.829 C 241.391 130.931,259.528 130.118,299.721 129.812 C 338.827 129.514,339.647 129.458,342.077 126.922 C 346.227 122.590,342.450 116.790,333.799 114.212 C 328.120 112.520,304.129 111.976,265.922 112.672 " stroke="none" fill="#000000" fill-rule="evenodd"></path></g></svg>